<svg width="32" height="32" viewBox="0 0 32 32" fill="none" xmlns="http://www.w3.org/2000/svg">
<rect width="32" height="32" rx="16" fill="#1D1D1D"/>
<path d="M21.2548 8.70168C20.5992 6.77052 19.008 5.59727 16.4167 5.13443C15.959 5.05272 15.4991 5.01891 14.6633 5.00575C14.0402 4.99591 13.4576 4.99901 13.3685 5.01266C12.0904 5.20858 11.194 5.58052 10.4913 6.20656L10.2037 6.46282L10.2402 6.79449C10.3277 7.5909 10.7549 8.42422 11.4755 9.20399C11.9313 9.69733 12.8206 10.4199 14.0699 11.3121C14.604 11.6936 15.1045 12.0651 15.1822 12.1378L15.3234 12.27L16.6854 12.2123C17.4345 12.1807 18.3628 12.1547 18.7484 12.1547C19.4318 12.1547 19.452 12.1514 19.5554 12.0188C19.728 11.7977 20.0925 11.6169 20.6591 11.471C21.2154 11.3279 21.4769 11.3308 21.6011 11.4816C21.6642 11.5582 21.678 11.557 21.7414 11.4697C21.8347 11.3411 21.8302 11.1254 21.7291 10.8817C21.6837 10.7722 21.6108 10.4259 21.5671 10.1123C21.4695 9.41171 21.4203 9.18926 21.2548 8.70168Z" fill="#FFCB05"/>
<path d="M20.2594 12.1531C20.7586 12.1547 20.7884 12.1482 20.8714 12.0206C20.9193 11.9468 20.9503 11.8634 20.9401 11.8353C20.9205 11.7813 19.9971 11.9975 19.8309 12.095C19.7595 12.1368 19.8701 12.1518 20.2594 12.1531Z" fill="#FFCB05"/>
<path d="M21.2931 14.0647C21.5292 13.4495 21.6473 12.226 21.497 11.9509C21.4239 11.817 21.2623 11.7895 21.1779 11.8965C21.1485 11.9339 21.091 12.0623 21.0502 12.1819C20.9475 12.4831 20.9457 14.0863 21.0479 14.2671C21.1326 14.4168 21.1697 14.3862 21.2931 14.0647Z" fill="#FFCB05"/>
<path d="M21.8149 11.9916C21.8428 11.9916 21.8656 11.9672 21.8656 11.9373C21.8656 11.9074 21.8278 11.8829 21.7815 11.8829C21.7353 11.8829 21.7124 11.9074 21.7308 11.9373C21.7491 11.9672 21.7869 11.9916 21.8149 11.9916Z" fill="#FFCB05"/>
<path d="M21.8117 12.3722C21.8413 12.3722 21.8656 12.3355 21.8656 12.2906C21.8656 12.2458 21.8413 12.2091 21.8117 12.2091C21.782 12.2091 21.7577 12.2458 21.7577 12.2906C21.7577 12.3355 21.782 12.3722 21.8117 12.3722Z" fill="#FFCB05"/>
<path d="M17.6727 12.4999C19.4965 12.4743 20.2448 12.4463 20.2311 12.4044C20.2291 12.3981 20.2274 12.3923 20.2247 12.387C20.1951 12.3286 20.0466 12.3315 18.0044 12.371L17.9273 12.3724C15.7297 12.4149 14.7982 12.4672 14.7982 12.5481C14.7982 12.579 14.862 12.5881 14.9466 12.5692C15.0281 12.551 16.2549 12.5198 17.6727 12.4999Z" fill="#FFCB05"/>
<path d="M20.8406 12.4265C20.8406 12.3966 20.8062 12.3722 20.7641 12.3722C20.722 12.3722 20.6552 12.3619 20.6157 12.3493C20.5245 12.3203 20.409 12.366 20.409 12.431C20.409 12.4584 20.5061 12.4809 20.6248 12.4809C20.7435 12.4809 20.8406 12.4564 20.8406 12.4265Z" fill="#FFCB05"/>
<path d="M14.8829 13.1563C14.8383 12.9774 14.5128 12.665 14.2317 12.5315C13.833 12.342 13.2811 12.4375 13.0918 12.7286C12.8682 13.0726 12.9123 13.9006 13.1852 14.4766C13.4795 15.098 14.1906 15.7457 14.7587 15.9099C14.97 15.971 15.2613 15.8865 15.3381 15.7419C15.4228 15.5824 15.4006 15.3327 15.293 15.2346C15.1606 15.1139 15.1055 15.1209 15.174 15.2498C15.2668 15.4245 15.2417 15.6781 15.1255 15.7407C14.9611 15.8293 14.8388 15.8088 14.4918 15.634C14.0572 15.4152 13.5526 14.8809 13.3268 14.4005C13.166 14.0584 13.1527 13.9879 13.1527 13.4742C13.1527 12.9187 13.1529 12.918 13.3292 12.7403C13.4756 12.5926 13.5443 12.5633 13.7338 12.5676C13.8593 12.5705 14.0614 12.6241 14.1829 12.6867C14.4241 12.8111 14.7443 13.1444 14.7443 13.2711C14.7443 13.3149 14.6202 13.418 14.4685 13.5002C14.3168 13.5824 14.074 13.742 13.929 13.8548L13.6653 14.06L13.6666 13.882C13.6673 13.7841 13.6901 13.6075 13.7172 13.4895C13.77 13.2599 13.7166 13.0599 13.6371 13.1896C13.5632 13.31 13.5424 14.0191 13.6059 14.2554C13.6422 14.3909 13.7522 14.5672 13.8822 14.6981C14.0609 14.8781 14.1644 14.9308 14.4817 15.003C14.6927 15.051 14.9352 15.0903 15.0206 15.0903C15.2231 15.0903 15.3917 14.9164 15.3917 14.7076C15.3917 14.5254 15.2315 14.1716 15.0989 14.0607C15.0522 14.0217 15.014 13.9438 15.014 13.8877C15.014 13.7425 14.9344 13.7614 14.8608 13.9241C14.7931 14.0739 14.777 14.2749 14.8327 14.2749C14.8517 14.2749 14.8974 14.2334 14.9342 14.1827C14.9936 14.1007 15.0141 14.1163 15.1186 14.3227C15.1832 14.4504 15.2287 14.6179 15.2195 14.6948C15.1912 14.9322 15.0688 14.9633 14.57 14.8602C14.1862 14.7808 14.0993 14.7412 13.9485 14.5765C13.6559 14.2572 13.7069 14.1591 14.3936 13.7191C14.8583 13.4213 14.9288 13.3403 14.8829 13.1563Z" fill="#FFCB05"/>
<path d="M20.8629 14.4079C20.7856 14.2213 20.656 13.1241 20.6894 12.9373C20.6983 12.8868 20.6754 12.8348 20.6383 12.8218C20.5023 12.7739 20.6092 14.0837 20.769 14.4229C20.8823 14.6636 20.9636 14.6507 20.8629 14.4079Z" fill="#FFCB05"/>
<path d="M10.5998 13.868C10.6715 13.8957 12.6767 13.113 12.7724 13.02C12.8536 12.941 12.6469 12.9699 12.2895 13.0876C12.1115 13.1462 11.6502 13.2874 11.2645 13.4014C10.6693 13.5772 10.5606 13.6261 10.5459 13.7245C10.5364 13.7883 10.5607 13.8528 10.5998 13.868Z" fill="#FFCB05"/>
<path fill-rule="evenodd" clip-rule="evenodd" d="M8.76096 8.87134C8.48593 9.55234 8.36308 10.1581 8.33751 10.9588C8.30277 12.0499 8.44935 12.5868 9.05839 13.5988C9.75083 14.7495 10.0241 15.4376 10.1889 16.4451C10.2781 16.9913 10.2739 17.9301 10.1799 18.438L10.1489 18.6055L10.6528 18.7843C12.4923 19.4371 14.7003 20.6933 16.0719 21.8672C16.2234 21.9969 16.362 22.103 16.38 22.103C16.3979 22.103 16.5918 21.7281 16.8108 21.27C17.2102 20.4346 17.4793 20.0504 17.7722 19.8978C18.0065 19.7757 18.4975 19.8053 19.1984 19.9839C20.383 20.2857 20.8612 20.2485 21.3418 19.8171C21.6103 19.576 21.5911 19.5067 21.2975 19.6575C20.9445 19.8389 20.6446 19.8035 20.128 19.5196C19.8819 19.3844 19.2437 19.0568 18.7096 18.7916C17.8551 18.3673 17.7019 18.2708 17.4342 17.9877C16.8657 17.3866 16.665 16.8161 16.4431 15.1718C16.2865 14.0108 16.1903 13.5648 16.0048 13.1401C15.9346 12.9794 15.8772 12.8354 15.8772 12.8201C15.8772 12.7374 17.6055 12.8729 18.7577 13.0459C19.4667 13.1523 20.053 13.2461 20.0607 13.2543C20.0683 13.2625 20.1006 13.4771 20.1323 13.7312C20.2111 14.3618 20.2846 14.5928 20.4639 14.7734C20.6587 14.9698 20.8015 14.9675 21.0564 14.7641C21.3102 14.5615 21.4895 14.1292 21.6257 13.3915C21.6796 13.0999 21.7373 12.8616 21.7541 12.8619C21.7709 12.8621 21.8407 12.9611 21.9092 13.0819C21.9777 13.2027 22.2224 13.5511 22.4531 13.8562C22.6839 14.1612 22.901 14.4642 22.9356 14.5295C23.1054 14.8498 22.9267 15.2822 22.5479 15.467C22.421 15.5289 22.291 15.5796 22.259 15.5796C22.104 15.5796 22.0941 16.0271 22.2435 16.274C22.3735 16.4889 22.377 16.5676 22.2657 16.7845C22.2028 16.907 22.1642 16.9351 22.12 16.8905C22.0258 16.7956 21.8418 16.8182 21.4619 16.9714C20.9028 17.1969 21.1022 17.2627 21.9255 17.1243C22.0968 17.0955 22.1241 17.1067 22.1528 17.2173C22.1918 17.3675 22.1441 17.591 22.0731 17.591C22.0453 17.591 21.963 17.651 21.8902 17.7244C21.728 17.8878 21.7143 18.1963 21.8477 18.6798C22.0593 19.4465 21.6265 20.0762 20.7406 20.2911C20.3764 20.3794 20.1129 20.3532 19.276 20.1452C18.1195 19.8577 17.9154 19.8729 17.5718 20.2722C17.3844 20.49 16.5785 22.073 16.5785 22.2232C16.5785 22.2632 16.7724 22.4901 17.0094 22.7275C17.2753 22.9938 17.4211 23.1785 17.3901 23.2097C17.3591 23.2409 17.1166 23.0469 16.7569 22.703C15.2605 21.2724 13.6329 20.2015 11.6345 19.3323C10.7101 18.9303 9.05547 18.4072 8.97563 18.4918C8.92772 18.5426 8.28081 20.3433 8.23193 20.562C8.21224 20.6499 8.23717 20.6879 8.33244 20.7154C11.5196 21.6325 14.2456 23.0352 16.5327 24.935C17.5243 25.7587 18.6369 27.01 19.1141 27.8383C19.2779 28.1227 19.2024 28.0429 18.8056 27.5121C17.1543 25.3036 14.3763 23.2368 11.2499 21.8906C10.4831 21.5604 8.82273 20.9801 8.28378 20.8538C8.12803 20.8174 8.00027 20.7594 8 20.7249C7.9986 20.566 8.84372 18.2996 8.90469 18.2987C8.94207 18.2981 9.19094 18.3506 9.45778 18.4154C9.72461 18.4801 9.95573 18.5201 9.97138 18.5044C9.98703 18.4886 10.0249 18.2583 10.0555 17.9925C10.215 16.6076 9.78282 14.9788 8.91763 13.704C8.65932 13.3234 8.37409 12.6992 8.26274 12.2708C8.06674 11.5169 8.1168 10.4501 8.38807 9.5997C8.5101 9.21731 8.8598 8.43601 8.89368 8.47015C8.90512 8.48168 8.84539 8.66222 8.76096 8.87134ZM21.3286 15.4459C21.2205 15.3473 21.1859 15.1299 21.251 14.9588C21.2977 14.836 21.3751 14.8527 21.4298 14.9974C21.5137 15.22 21.6206 15.2714 21.8023 15.1767C22.1589 14.9909 22.6749 14.954 22.6749 15.1143C22.6749 15.1505 22.6154 15.2364 22.5427 15.3051C22.4454 15.3973 22.3709 15.4222 22.2595 15.3998C22.1764 15.3831 21.9578 15.4093 21.7737 15.4581C21.455 15.5424 21.4338 15.5418 21.3286 15.4459Z" fill="#FFCB05"/>
</svg>
