<svg width="1366" height="1366" viewBox="0 0 1366 1366" fill="none" xmlns="http://www.w3.org/2000/svg">
<rect width="1365.33" height="1365.33" rx="682.667" fill="#1D1D1D"/>
<path d="M954.508 315.979C923.523 225.214 848.312 170.072 725.829 148.318C704.198 144.478 682.456 142.889 642.954 142.27C613.501 141.808 585.961 141.954 581.753 142.595C521.338 151.803 478.969 169.285 445.758 198.708L432.164 210.753L433.887 226.341C438.023 263.772 458.217 302.938 492.275 339.588C513.82 362.775 555.852 396.736 614.903 438.669C640.149 456.598 663.808 474.059 667.477 477.475L674.151 483.689L738.529 480.98C773.936 479.491 817.816 478.272 836.039 478.272C868.345 478.272 869.296 478.114 874.187 471.882C882.345 461.493 899.57 452.993 926.356 446.137C952.649 439.41 965.009 439.548 970.879 446.633C973.863 450.233 974.516 450.179 977.509 446.076C981.921 440.033 981.706 429.895 976.93 418.438C974.783 413.292 971.338 397.02 969.273 382.277C964.659 349.35 962.331 338.895 954.508 315.979Z" fill="#FFCB05"/>
<path d="M907.46 478.195C931.058 478.269 932.465 477.965 936.387 471.966C938.654 468.499 940.116 464.58 939.634 463.259C938.708 460.721 895.062 470.883 887.205 475.464C883.832 477.431 889.059 478.137 907.46 478.195Z" fill="#FFCB05"/>
<path d="M956.321 568.043C967.482 539.128 973.062 481.624 965.96 468.691C962.505 462.398 954.862 461.105 950.877 466.136C949.484 467.893 946.769 473.929 944.841 479.549C939.985 493.707 939.899 569.055 944.731 577.553C948.732 584.592 950.487 583.153 956.321 568.043Z" fill="#FFCB05"/>
<path d="M980.982 470.607C982.303 470.607 983.382 469.457 983.382 468.052C983.382 466.647 981.592 465.497 979.406 465.497C977.221 465.497 976.14 466.647 977.007 468.052C977.874 469.457 979.661 470.607 980.982 470.607Z" fill="#FFCB05"/>
<path d="M980.832 488.492C982.234 488.492 983.382 486.767 983.382 484.66C983.382 482.552 982.234 480.827 980.832 480.827C979.429 480.827 978.282 482.552 978.282 484.66C978.282 486.767 979.429 488.492 980.832 488.492Z" fill="#FFCB05"/>
<path d="M785.197 494.494C871.4 493.291 906.769 491.977 906.124 490.005C906.027 489.708 905.947 489.436 905.82 489.188C904.422 486.445 897.402 486.58 800.875 488.435L797.23 488.505C693.355 490.5 649.329 492.958 649.329 496.76C649.329 498.214 652.343 498.641 656.341 497.752C660.197 496.898 718.182 495.432 785.197 494.494Z" fill="#FFCB05"/>
<path d="M934.931 491.047C934.931 489.642 933.304 488.492 931.315 488.492C929.326 488.492 926.169 488.009 924.303 487.417C919.993 486.052 914.531 488.201 914.531 491.259C914.531 492.547 919.121 493.602 924.731 493.602C930.341 493.602 934.931 492.452 934.931 491.047Z" fill="#FFCB05"/>
<path d="M653.332 525.346C651.226 516.937 635.839 502.253 622.553 495.978C603.706 487.074 577.622 491.561 568.674 505.243C558.102 521.414 560.19 560.329 573.085 587.402C586.996 616.606 620.608 647.05 647.462 654.766C657.448 657.635 671.218 653.665 674.849 646.868C678.853 639.372 677.802 627.639 672.715 623.027C666.457 617.352 663.854 617.682 667.09 623.74C671.476 631.952 670.29 643.869 664.797 646.814C657.027 650.979 651.249 650.014 634.845 641.799C614.304 631.515 590.454 606.404 579.782 583.825C572.178 567.744 571.553 564.433 571.553 540.285C571.553 514.178 571.561 514.145 579.891 505.792C586.815 498.853 590.058 497.476 599.017 497.678C604.948 497.813 614.503 500.332 620.246 503.276C631.647 509.124 646.779 524.786 646.779 530.74C646.779 532.799 640.914 537.646 633.746 541.509C626.575 545.375 615.1 552.874 608.245 558.176L595.778 567.818L595.839 559.453C595.873 554.854 596.951 546.553 598.234 541.006C600.73 530.216 598.206 520.816 594.447 526.91C590.954 532.572 589.972 565.897 592.971 577.003C594.689 583.373 599.889 591.657 606.032 597.812C614.477 606.271 619.368 608.747 634.37 612.14C644.343 614.396 655.806 616.244 659.842 616.244C669.41 616.244 677.379 608.073 677.379 598.256C677.379 589.694 669.81 573.066 663.54 567.854C661.334 566.019 659.529 562.358 659.529 559.721C659.529 552.897 655.765 553.786 652.289 561.431C649.086 568.472 648.327 577.918 650.961 577.918C651.858 577.918 654.016 575.969 655.755 573.585C658.565 569.734 659.534 570.465 664.473 580.167C667.528 586.171 669.675 594.04 669.242 597.656C667.906 608.811 662.117 610.275 638.542 605.428C620.399 601.695 616.296 599.835 609.166 592.096C595.337 577.09 597.747 572.476 630.204 551.795C652.169 537.799 655.5 533.992 653.332 525.346Z" fill="#FFCB05"/>
<path d="M935.987 584.173C932.33 575.402 926.208 523.831 927.784 515.052C928.207 512.681 927.123 510.238 925.369 509.622C918.94 507.371 923.997 568.932 931.548 584.878C936.905 596.189 940.746 595.581 935.987 584.173Z" fill="#FFCB05"/>
<path d="M450.886 558.794C454.272 560.097 549.054 523.309 553.575 518.938C557.416 515.228 547.644 516.587 530.753 522.116C522.338 524.871 500.535 531.506 482.302 536.864C454.168 545.129 449.029 547.429 448.336 552.051C447.887 555.048 449.034 558.083 450.886 558.794Z" fill="#FFCB05"/>
<path fill-rule="evenodd" clip-rule="evenodd" d="M363.968 323.953C350.968 355.96 345.162 384.431 343.953 422.061C342.311 473.346 349.239 498.579 378.027 546.144C410.756 600.226 423.675 632.565 431.46 679.92C435.68 705.593 435.481 749.713 431.039 773.585L429.573 781.46L453.387 789.863C540.338 820.544 644.703 879.583 709.53 934.756C716.693 940.855 723.246 945.842 724.093 945.842C724.939 945.842 734.104 928.223 744.457 906.689C763.335 867.426 776.057 849.37 789.899 842.198C800.976 836.459 824.184 837.851 857.311 846.242C913.302 860.428 935.908 858.677 958.621 838.403C971.313 827.074 970.405 823.817 956.53 830.904C939.845 839.428 925.67 837.765 901.251 824.422C889.62 818.068 859.451 802.669 834.205 790.205C793.816 770.263 786.579 765.728 773.923 752.422C747.053 724.168 737.565 697.358 727.076 620.076C719.674 565.508 715.127 544.547 706.36 524.584C703.042 517.032 700.329 510.264 700.329 509.545C700.329 505.659 782.022 512.026 836.483 520.157C869.993 525.159 897.706 529.567 898.068 529.95C898.43 530.336 899.955 540.423 901.455 552.368C905.18 582.006 908.651 592.86 917.125 601.35C926.335 610.579 933.085 610.474 945.132 600.913C957.13 591.391 965.606 571.073 972.042 536.399C974.587 522.696 977.318 511.495 978.111 511.508C978.907 511.518 982.204 516.173 985.442 521.851C988.678 527.528 1000.25 543.903 1011.15 558.239C1022.06 572.576 1032.32 586.817 1033.96 589.886C1041.98 604.94 1033.53 625.265 1015.63 633.947C1009.63 636.858 1003.49 639.239 1001.97 639.239C994.65 639.239 994.179 660.272 1001.24 671.877C1007.39 681.979 1007.55 685.677 1002.29 695.871C999.317 701.63 997.496 702.949 995.405 700.853C990.953 696.392 982.255 697.455 964.297 704.658C937.874 715.256 947.297 718.345 986.21 711.842C994.309 710.488 995.599 711.015 996.956 716.214C998.797 723.271 996.545 733.775 993.189 733.775C991.876 733.775 987.985 736.598 984.542 740.047C976.877 747.725 976.229 762.225 982.535 784.952C992.534 820.986 972.08 850.583 930.206 860.683C912.994 864.833 900.537 863.598 860.981 853.823C806.313 840.312 796.667 841.025 780.425 859.794C771.572 870.029 733.479 944.429 733.479 951.492C733.479 953.369 742.644 964.034 753.847 975.192C766.413 987.709 773.303 996.389 771.84 997.855C770.373 999.324 758.913 990.203 741.91 974.04C671.177 906.804 594.251 856.47 499.79 815.618C456.096 796.723 377.889 772.139 374.115 776.114C371.85 778.501 341.273 863.133 338.963 873.412C338.032 877.546 339.21 879.332 343.713 880.623C494.361 923.726 623.209 989.653 731.315 1078.95C778.184 1117.66 830.771 1176.47 853.326 1215.4C861.07 1228.77 857.502 1225.02 838.745 1200.07C760.693 1096.27 629.388 999.13 481.614 935.857C445.37 920.341 366.888 893.063 341.413 887.13C334.051 885.416 328.013 882.69 328 881.072C327.934 873.604 367.88 767.082 370.762 767.039C372.529 767.011 384.292 769.479 396.904 772.522C409.517 775.562 420.441 777.446 421.181 776.705C421.92 775.964 423.71 765.138 425.156 752.649C432.694 687.557 412.268 611.006 371.374 551.09C359.164 533.2 345.682 503.863 340.419 483.729C331.154 448.294 333.521 398.157 346.343 358.186C352.111 340.214 368.64 303.493 370.241 305.097C370.782 305.639 367.959 314.124 363.968 323.953ZM957.999 632.958C952.889 628.324 951.252 618.104 954.329 610.066C956.54 604.291 960.197 605.075 962.78 611.877C966.748 622.34 971.8 624.757 980.388 620.306C997.244 611.573 1021.63 609.838 1021.63 617.373C1021.63 619.072 1018.82 623.109 1015.39 626.341C1010.79 630.672 1007.26 631.845 1002 630.792C998.07 630.008 987.737 631.237 979.037 633.528C963.974 637.491 962.969 637.463 957.999 632.958Z" fill="#FFCB05"/>
</svg>
